<svg xmlns="http://www.w3.org/2000/svg" viewBox="0 0 2517.1 700.6"><defs><style>.cls-1{fill:#2a2e43;}.cls-2{fill:#1f9590;}.cls-3{fill:#44b9b8;}</style></defs><title>logo-e-carnet_1</title><g id="Calque_2" data-name="Calque 2"><g id="Calque_1-2" data-name="Calque 1"><rect class="cls-1" x="542.1" y="441.9" width="1974.9" height="12.6"/><path class="cls-2" d="M311.7,362.5H140a20.1,20.1,0,0,1-20.2-20.2V25.3A20.2,20.2,0,0,1,140,5.1H311.7a20.2,20.2,0,0,1,20.2,20.2V62.4a20.1,20.1,0,0,1-20.2,20.2H236.5a20.3,20.3,0,0,0-20.2,20.2v15.8a20.2,20.2,0,0,0,20.2,20.2h66.7a20.3,20.3,0,0,1,20.2,20.3v37a20.2,20.2,0,0,1-20.2,20.2H236.5a20.3,20.3,0,0,0-20.2,20.2v27.1a20.2,20.2,0,0,0,20.2,20.2h75.2A20.2,20.2,0,0,1,331.9,304v38.3A20.1,20.1,0,0,1,311.7,362.5Z"/><path class="cls-1" d="M365.7,246.3v-36a20.1,20.1,0,0,1,20.1-20.1h97.8a20.1,20.1,0,0,1,20.2,20.1v36a20.1,20.1,0,0,1-20.2,20.1H385.8A20.1,20.1,0,0,1,365.7,246.3Z"/><path class="cls-1" d="M712.1,79.2q-34.5,0-53.8,28.2c-12.9,18.9-19.3,44.8-19.3,77.9q0,103.2,78.4,103.1a160.9,160.9,0,0,0,46-6.6c5.9-1.7,11.9-3.6,17.8-5.7a20.2,20.2,0,0,1,26.9,19v38.8A20.3,20.3,0,0,1,794.7,353q-39.6,14.4-87.8,14.4-80.9,0-124-46.9T539.7,184.8q0-55.5,20.9-97.5t60.2-64.7C646.9,7.5,677.7,0,713,0a252.8,252.8,0,0,1,92.3,17.2,20.3,20.3,0,0,1,11.4,26.2L801.8,81.7a20,20,0,0,1-26.2,11.4q-10.5-4.2-21-7.5A136.6,136.6,0,0,0,712.1,79.2Z"/><path class="cls-1" d="M1093.1,347.5l-13.6-52H963.3l-14,52.1a20.2,20.2,0,0,1-19.5,14.9H866.9a20.2,20.2,0,0,1-19.2-26.4L951.2,17.6A20.2,20.2,0,0,1,970.4,3.7H1070a20.3,20.3,0,0,1,19.2,13.8L1194,336a20.3,20.3,0,0,1-19.2,26.5h-62.2A20.1,20.1,0,0,1,1093.1,347.5Zm-33.7-131.2L1044,157.7c-3.6-13.1-7.9-29.9-13.1-50.6s-8.5-35.6-10.1-44.5c-1.5,8.3-4.4,22-8.7,41s-13.9,56.7-28.7,112.7Z"/><path class="cls-1" d="M1337.8,232.5V342.4a20.1,20.1,0,0,1-20.1,20.1h-56.3a20.1,20.1,0,0,1-20.1-20.1V25.3a20.2,20.2,0,0,1,20.1-20.2h97q145.6,0,145.7,105.6,0,62.1-60.7,96.1l83.2,124.3a20.2,20.2,0,0,1-16.8,31.4h-60.1a20.2,20.2,0,0,1-17.5-10l-69.9-120Zm0-72.6h18.1c33.8,0,50.6-14.9,50.6-44.8q0-36.9-49.6-36.9h-19.1Z"/><path class="cls-1" d="M1900.2,362.5H1806a20.2,20.2,0,0,1-17.9-10.9L1663.2,110.7H1661c3.1,39.6,4.6,69.9,4.6,90.7v141a20.1,20.1,0,0,1-20.1,20.1h-45.2a20.1,20.1,0,0,1-20.2-20.1V25.3a20.2,20.2,0,0,1,20.2-20.2H1694a20.3,20.3,0,0,1,17.9,10.8l124.4,237.6h1.4c-2.2-36-3.4-65-3.4-86.8V25.3a20.2,20.2,0,0,1,20.2-20.2h45.7a20.3,20.3,0,0,1,20.2,20.2V342.4A20.2,20.2,0,0,1,1900.2,362.5Z"/><path class="cls-1" d="M2189.6,362.5H2017.8a20.1,20.1,0,0,1-20.2-20.1V25.3a20.2,20.2,0,0,1,20.2-20.2h171.8a20.2,20.2,0,0,1,20.2,20.2V62.5a20.1,20.1,0,0,1-20.2,20.1h-75.3a20.2,20.2,0,0,0-20.1,20.2v15.9a20.1,20.1,0,0,0,20.1,20.1h66.8a20.2,20.2,0,0,1,20.1,20.2v37.2a20.1,20.1,0,0,1-20.1,20.1h-66.8a20.2,20.2,0,0,0-20.1,20.2v27.1a20.1,20.1,0,0,0,20.1,20.2h75.3a20.1,20.1,0,0,1,20.2,20.2v38.4A20.1,20.1,0,0,1,2189.6,362.5Z"/><path class="cls-1" d="M2409.9,362.5h-56.3a20.1,20.1,0,0,1-20.1-20.1V84.1h-67.1a20.1,20.1,0,0,1-20.2-20.2V25.3a20.2,20.2,0,0,1,20.2-20.2h230.5a20.3,20.3,0,0,1,20.2,20.2V63.9a20.2,20.2,0,0,1-20.2,20.2H2430V342.4A20.1,20.1,0,0,1,2409.9,362.5Z"/><path class="cls-2" d="M177.6,181.8c5.1-7.9,8.3-16.7,11.8-26s7.4-19.5,13.3-28.7c7.9-12-7.8-44.6,5.7-51.6l27.1-53.1c0-9.5-8.6-17.3-19.3-17.3H139.1c-10.7,0-19.3,7.8-19.3,17.3V141.3H19.3C8.6,141.3,0,149.1,0,158.6v40.5c0,9.5,8.6,17.3,19.3,17.3H119C143,213.8,165.6,200.7,177.6,181.8Z"/><path class="cls-3" d="M216.2,5.1H139.1c-10.7,0-19.3,7.8-19.3,17.3V141.3H19.3C8.6,141.3,0,149.1,0,158.6v40.5a15.5,15.5,0,0,0,1.3,6.1c45.1.2,90.2-18.9,118.1-50.8,12-13.9,21-29.6,30.4-46.3l.3-.5A162.4,162.4,0,0,1,277.8,25.8a336.6,336.6,0,0,1,54.1.1V20.3A15.2,15.2,0,0,0,316.7,5.1Z"/><path class="cls-3" d="M645.8,615.9c-.5-14.7-1.1-32.5-1.1-50.2h-.5c-3.8,15.6-8.9,33-13.6,47.3l-14.9,47.7H594.1l-13-47.3c-4-14.4-8.2-31.8-11.1-47.7h-.3c-.8,16.5-1.3,35.3-2.2,50.6l-2.2,46.4H539.7l7.8-122.3h36.8l12,40.9c3.8,14.1,7.6,29.3,10.3,43.7h.6c3.4-14.2,7.6-30.3,11.6-43.9l13.1-40.7H668l6.7,122.3H647.6Z"/><path class="cls-3" d="M783.1,617.3c0,32.5-23,47.4-46.8,47.4-25.9,0-45.9-17.1-45.9-45.7s18.9-47,47.4-47S783.1,590.7,783.1,617.3Zm-64.2,1c0,15.2,6.4,26.6,18.2,26.6s17.5-10.7,17.5-26.6c0-13.3-5-26.7-17.5-26.7S718.9,605.2,718.9,618.3Z"/><path class="cls-3" d="M800.2,602.3c0-11.1-.4-20.5-.8-28.3h24l1.3,12.2h.5c3.6-5.7,12.7-14.2,27.4-14.2,18.1,0,31.7,12,31.7,38.1v52.6H856.8V613.5c0-11.4-4-19.2-14-19.2-7.6,0-12.2,5.3-14,10.4a19,19,0,0,0-1.1,6.8v51.2H800.2Z"/><path class="cls-3" d="M942.9,638.6c5.1,3.1,15.6,6.7,23.8,6.7s11.8-2.9,11.8-7.5-2.8-6.7-13.1-10.1c-18.3-6.2-25.4-16.2-25.2-26.7,0-16.5,14.1-29,36.1-29,10.3,0,19.6,2.4,25,5.1l-4.9,19c-4-2.1-11.6-5-19.2-5s-10.5,2.7-10.5,7.2,3.4,6.4,14.3,10.2c16.9,5.8,23.9,14.3,24.1,27.3,0,16.6-13,28.7-38.4,28.7-11.6,0-22-2.5-28.7-6.2Z"/><path class="cls-3" d="M1105.4,634.2c0,11.6.4,21.1.7,28.5h-23.9l-1.3-12.5h-.5c-3.5,5.4-11.8,14.5-27.8,14.5-17.9,0-31.2-11.3-31.2-38.6V574h27.8v47.7c0,12.9,4.2,20.7,13.8,20.7,7.6,0,12-5.3,13.8-9.6a16.1,16.1,0,0,0,.9-6V574h27.7Z"/><path class="cls-3" d="M1156,549.3c0,7.7-5.8,13.8-14.8,13.8s-14.6-6.1-14.4-13.8,5.6-13.9,14.5-13.9S1155.8,541.4,1156,549.3Zm-28.5,113.4V574h27.6v88.7Z"/><path class="cls-3" d="M1197.7,574l12,41.2a203.6,203.6,0,0,1,5.1,21.6h.5c1.5-7.3,2.9-14,4.9-21.6l11.5-41.2h29l-33,88.7h-27.6L1167.8,574Z"/><path class="cls-3" d="M1301.8,549.3c0,7.7-5.8,13.8-14.8,13.8s-14.5-6.1-14.4-13.8,5.7-13.9,14.6-13.9S1301.7,541.4,1301.8,549.3Zm-28.4,113.4V574h27.5v88.7Z"/><path class="cls-3" d="M1445.7,533.9V636.2c0,10,.3,20.5.7,26.5h-24.5l-1.3-13.1h-.3c-5.6,10-16.3,15.1-27.8,15.1-21,0-37.9-18-37.9-45.5-.2-30,18.5-47.2,39.7-47.2,10.9,0,19.4,3.8,23.4,10h.4V533.9Zm-27.6,77.6a42.2,42.2,0,0,0-.4-4.9c-1.6-7.4-7.6-13.6-16.1-13.6-12.5,0-19,11.3-19,25.3s7.4,24.4,18.8,24.4c8,0,14.3-5.4,16-13.2a25.3,25.3,0,0,0,.7-6.3Z"/><path class="cls-3" d="M1500.6,538.5a243.9,243.9,0,0,1-21.7,49.1l-16.7,1.5a284.1,284.1,0,0,0,12.5-49Z"/><path class="cls-3" d="M1559.9,662.7l-1.6-8.9h-.5c-5.8,7.1-14.9,10.9-25.4,10.9-18,0-28.7-13.1-28.7-27.2,0-23.1,20.7-34.1,52.1-33.9v-1.3c0-4.7-2.6-11.4-16.2-11.4a50.4,50.4,0,0,0-24.5,6.7l-5-17.8c6.1-3.4,18.3-7.8,34.4-7.8,29.6,0,39,17.4,39,38.3v30.8c0,8.5.4,16.7,1.3,21.6Zm-3.2-41.9c-14.5-.2-25.8,3.3-25.8,14,0,7,4.7,10.5,10.9,10.5a15.1,15.1,0,0,0,14.3-10.2,17.8,17.8,0,0,0,.6-4.7Z"/><path class="cls-3" d="M1605.3,603.7c0-11.6-.4-21.5-.7-29.7h23.9l1.3,12.3h.3c6.6-9.4,16.7-14.3,29.6-14.3,19.4,0,36.8,16.9,36.8,45.2,0,32.3-20.5,47.5-40.3,47.5-10.7,0-19-4.4-23-10.2h-.4v44.1h-27.5Zm27.5,20.9a24.6,24.6,0,0,0,.6,5.8,16.8,16.8,0,0,0,16.1,13.1c12,0,19.1-10,19.1-25.1s-6.4-24.8-18.7-24.8c-7.8,0-14.7,5.8-16.5,14a18.8,18.8,0,0,0-.6,4.9Z"/><path class="cls-3" d="M1713.7,603.7c0-11.6-.3-21.5-.7-29.7h24l1.2,12.3h.4c6.5-9.4,16.7-14.3,29.5-14.3,19.5,0,36.9,16.9,36.9,45.2,0,32.3-20.5,47.5-40.3,47.5-10.7,0-19-4.4-23-10.2h-.4v44.1h-27.6Zm27.6,20.9a24.6,24.6,0,0,0,.6,5.8c1.8,7.4,8.1,13.1,16.1,13.1,12,0,19-10,19-25.1s-6.3-24.8-18.6-24.8c-7.8,0-14.7,5.8-16.5,14a18.8,18.8,0,0,0-.6,4.9Z"/><path class="cls-3" d="M1872.6,662.7l-1.6-8.9h-.6c-5.8,7.1-14.8,10.9-25.3,10.9-18,0-28.7-13.1-28.7-27.2,0-23.1,20.7-34.1,52-33.9v-1.3c0-4.7-2.5-11.4-16.1-11.4a50.1,50.1,0,0,0-24.5,6.7l-5.1-17.8c6.2-3.4,18.4-7.8,34.5-7.8,29.6,0,39,17.4,39,38.3v30.8c0,8.5.4,16.7,1.3,21.6Zm-3.2-41.9c-14.6-.2-25.8,3.3-25.8,14,0,7,4.7,10.5,10.9,10.5a15.1,15.1,0,0,0,14.3-10.2,17.8,17.8,0,0,0,.6-4.7Z"/><path class="cls-3" d="M1918,603.2c0-13.1-.4-21.6-.8-29.2H1941l.9,16.3h.7c4.6-12.9,15.4-18.3,24-18.3a26,26,0,0,1,5.8.4v25.9a37.5,37.5,0,0,0-7.5-.7c-10.1,0-17,5.4-18.8,13.9a30.3,30.3,0,0,0-.6,6.2v45H1918Z"/><path class="cls-3" d="M2006.7,627.1c.9,11.5,12.1,16.9,25,16.9a80.4,80.4,0,0,0,24.5-3.6l3.6,18.7c-9.1,3.6-20.1,5.4-32.1,5.4-30.1,0-47.3-17.4-47.3-45.2,0-22.4,13.9-47.3,44.8-47.3,28.6,0,39.5,22.3,39.5,44.3a72.4,72.4,0,0,1-.9,10.8Zm32.4-18.8c0-6.7-2.9-18-15.6-18s-16.3,10.5-17,18Z"/><path class="cls-3" d="M2109.7,549.3c0,7.7-5.8,13.8-14.9,13.8s-14.5-6.1-14.3-13.8,5.6-13.9,14.5-13.9S2109.5,541.4,2109.7,549.3Zm-28.5,113.4V574h27.6v88.7Z"/><path class="cls-3" d="M2130.9,533.9h27.6V662.7h-27.6Z"/><path class="cls-3" d="M2180.8,533.9h27.5V662.7h-27.5Z"/><path class="cls-3" d="M2281.1,662.7l-1.7-8.9h-.5c-5.8,7.1-14.9,10.9-25.4,10.9-18,0-28.7-13.1-28.7-27.2,0-23.1,20.7-34.1,52.1-33.9v-1.3c0-4.7-2.5-11.4-16.1-11.4a50.1,50.1,0,0,0-24.5,6.7l-5.1-17.8c6.2-3.4,18.3-7.8,34.5-7.8,29.5,0,38.9,17.4,38.9,38.3v30.8c0,8.5.4,16.7,1.3,21.6Zm-3.3-41.9c-14.5-.2-25.8,3.3-25.8,14,0,7,4.8,10.5,10.9,10.5a15.3,15.3,0,0,0,14.4-10.2,23.4,23.4,0,0,0,.5-4.7Z"/><path class="cls-3" d="M2411.1,574c-.4,5.6-.7,13.1-.7,26.3v49.5c0,17.1-3.5,31-13.4,39.9s-23.1,10.9-36.1,10.9-24-2.4-31.9-6.9l5.4-20.9a53.9,53.9,0,0,0,25.7,6.8c13.1,0,23.1-7.1,23.1-23.4v-5.8h-.4c-5.2,7.4-13.8,11.6-23.9,11.6-22,0-37.6-17.8-37.6-43.4,0-28.5,18.5-46.6,40.3-46.6,12.2,0,19.8,5.3,24.3,12.5h.4l.9-10.5Zm-28.3,36.1a26.7,26.7,0,0,0-.5-5.1c-2-7.2-7.3-12.1-14.9-12.1-10,0-18.1,9-18.1,25.2,0,13.2,6.5,23.6,18.1,23.6a15,15,0,0,0,14.5-11.3,24.1,24.1,0,0,0,.9-7.2Z"/><path class="cls-3" d="M2453.7,627.1c.9,11.5,12.2,16.9,25.1,16.9a79.3,79.3,0,0,0,24.4-3.6l3.7,18.7c-9.1,3.6-20.2,5.4-32.1,5.4-30.1,0-47.4-17.4-47.4-45.2,0-22.4,14-47.3,44.8-47.3,28.7,0,39.6,22.3,39.6,44.3a72.4,72.4,0,0,1-.9,10.8Zm32.5-18.8c0-6.7-2.9-18-15.6-18s-16.3,10.5-17,18Z"/></g></g></svg>